<?xml version="1.0" encoding="UTF-8"?>
<!DOCTYPE svg PUBLIC "-//W3C//DTD SVG 1.1//EN" "http://www.w3.org/Graphics/SVG/1.1/DTD/svg11.dtd">
<!-- Creator: CorelDRAW -->
<svg xmlns="http://www.w3.org/2000/svg" xml:space="preserve" width="115.684mm" height="107.345mm" style="shape-rendering:geometricPrecision; text-rendering:geometricPrecision; image-rendering:optimizeQuality; fill-rule:evenodd; clip-rule:evenodd"
viewBox="0 0 115.684 107.345"
 xmlns:xlink="http://www.w3.org/1999/xlink">
 <defs>
  <style type="text/css">
   <![CDATA[
    .str0 {stroke:#F28F44;stroke-width:0.2}
    .fil1 {fill:#17345C}
    .fil2 {fill:#F28F44}
    .fil3 {fill:#17345C;fill-rule:nonzero}
    .fil0 {fill:#F28F44;fill-rule:nonzero}
   ]]>
  </style>
 </defs>
 <g id="Layer_x0020_1">
  <metadata id="CorelCorpID_0Corel-Layer"/>
  <g id="_209332312">
   <path id="_65869448" class="fil0" d="M38.106 107.345m23.9654 -21.1368l0.1186 15.7472 -8.55341 1.9141c-1.2684,-2.1405 -2.5084,-4.6167 -3.7199,-7.42851 -0.00810001,1.3188 -0.0892001,4.0906 -0.2487,8.31661l-8.50351 1.903 -6.21891 -14.3821 6.64961 -1.4881 1.8021 5.1007 1.7803 4.9128c-0.3006,-2.6798 -0.3956,-6.26351 -0.2796,-10.7525l7.12121 -1.5937c0.1928,0.4192 0.789501,2.0184 1.7917,4.8004l1.9499 5.5566c-0.3861,-3.7247 -0.5016,-7.43371 -0.3445,-11.1172l6.65511 -1.4893zm2.9057 14.3741m7.48531 -18.7457l9.12671 13.1935 -6.80781 2.2754 -1.2857 -2.4917 -2.3877 0.798101 0.5635 2.7329 -6.88291 2.3005 -1.9417 -15.5948 9.61561 -3.2139zm-0.0979001 10.4784c-0.941901,-1.5243 -2.0211,-3.4376 -3.2458,-5.7305 0.3438,2.9914 0.667101,5.154 0.971401,6.49061l2.2744 -0.760101zm8.76991 2.557m0.5672 -17.1227l5.6884 11.0214 3.8913 -1.695 1.4227 2.7568 -10.2933 4.4835 -7.11131 -13.778 6.40221 -2.7887zm12.1188 11.6259m2.4975 -19.351l12.5462 10.8353 -6.16501 3.4898 -1.9343 -2.131 -2.1623 1.2241 1.2804 2.5011 -6.23341 3.5284 -6.03941 -14.5185 8.70781 -4.9292zm2.6644 10.0263c-1.3377,-1.2735 -2.9143,-2.8922 -4.7357,-4.845 1.13,2.7904 2.0214,4.7932 2.6759,6.01101l2.0598 -1.166z"/>
   <circle id="_65868824" class="fil1" cx="58.4531" cy="7.38711" r="6.87911"/>
   <polygon id="_65868608" class="fil2 str0" points="100.754,0.1847 100.67,0.1847 100.67,0.354 100.585,0.354 100.585,0.4387 100.5,0.4387 100.5,0.5233 100.416,0.5233 100.416,0.692701 100.331,0.692701 100.331,0.777301 100.246,0.777301 100.246,0.946701 100.162,0.946701 100.162,1.0313 100.077,1.0313 100.077,1.2007 99.9925,1.2007 99.9925,1.2853 99.9078,1.2853 99.9078,1.4547 99.8232,1.4547 99.8232,1.5393 99.7385,1.5393 99.7385,1.7087 99.6538,1.7087 99.6538,1.7933 99.5692,1.7933 99.5692,1.9627 99.4845,1.9627 99.4845,2.0473 103.633,2.0473 103.633,2.132 104.056,2.132 104.056,2.2167 104.48,2.2167 104.48,2.3013 104.734,2.3013 104.734,2.386 104.988,2.386 104.988,2.4707 105.242,2.4707 105.242,2.5553 105.411,2.5553 105.411,2.64 105.58,2.64 105.58,2.7247 105.665,2.7247 105.665,2.8093 105.834,2.8093 105.834,2.894 106.004,2.894 106.004,2.9787 106.088,2.9787 106.088,3.0633 106.173,3.0633 106.173,3.148 106.258,3.148 106.258,3.2327 106.342,3.2327 106.342,3.3173 106.512,3.3173 106.512,3.4867 106.596,3.4867 106.596,3.5713 106.681,3.5713 106.681,3.656 106.766,3.656 106.766,3.7407 106.85,3.7407 106.85,3.91 106.935,3.91 106.935,4.0793 100.754,4.0793 100.754,4.164 100.67,4.164 100.67,4.3333 100.585,4.3333 100.585,4.418 100.5,4.418 100.5,4.5873 100.416,4.5873 100.416,4.672 100.331,4.672 100.331,4.7567 100.246,4.7567 100.246,4.926 100.162,4.926 100.162,5.0107 100.077,5.0107 100.077,5.18 99.9925,5.18 99.9925,5.2647 99.9078,5.2647 99.9078,5.434 99.8232,5.434 99.8232,5.5187 99.7385,5.5187 99.7385,5.6033 99.6538,5.6033 99.6538,5.7727 99.5692,5.7727 99.5692,5.85731 99.4845,5.85731 99.4845,6.02671 107.274,6.02671 107.274,6.53471 107.189,6.53471 107.189,6.87331 107.104,6.87331 107.104,7.04271 107.02,7.04271 107.02,7.21201 106.935,7.21201 106.935,7.38131 106.85,7.38131 106.85,7.55071 106.766,7.55071 106.766,7.72001 106.681,7.72001 106.681,7.80471 106.596,7.80471 106.596,7.88931 106.512,7.88931 106.512,7.97401 106.427,7.97401 106.427,8.14331 106.342,8.14331 106.342,8.22801 106.258,8.22801 106.258,8.31271 106.173,8.31271 106.173,8.39731 106.004,8.39731 106.004,8.48201 105.919,8.48201 105.919,8.56671 105.834,8.56671 105.834,8.65131 105.665,8.65131 105.665,8.73601 105.58,8.73601 105.58,8.82071 105.411,8.82071 105.411,8.90531 105.242,8.90531 105.242,8.99001 105.072,8.99001 105.072,9.07471 104.903,9.07471 104.903,9.15931 104.649,9.15931 104.649,9.24401 104.395,9.24401 104.395,9.32871 104.141,9.32871 104.141,9.41331 103.718,9.41331 103.718,9.49801 103.21,9.49801 103.21,9.58271 100.331,9.58271 100.331,9.49801 100.246,9.49801 100.246,9.58271 100.162,9.58271 100.162,11.4453 100.246,11.4453 100.246,11.53 100.331,11.53 100.331,11.6993 100.416,11.6993 100.416,11.784 100.5,11.784 100.5,11.8687 100.585,11.8687 100.585,11.9533 100.67,11.9533 100.67,12.038 100.754,12.038 100.754,12.2073 100.839,12.2073 100.839,12.292 100.924,12.292 100.924,12.3767 101.008,12.3767 101.008,12.4613 101.093,12.4613 101.093,12.546 101.178,12.546 101.178,12.6307 101.262,12.6307 101.262,12.8 101.347,12.8 101.347,12.8847 101.432,12.8847 101.432,12.9693 101.516,12.9693 101.516,13.054 101.601,13.054 101.601,13.1387 101.686,13.1387 101.686,13.2233 101.77,13.2233 101.77,13.3927 101.855,13.3927 101.855,13.4773 101.94,13.4773 101.94,13.562 102.024,13.562 102.024,13.6467 102.109,13.6467 102.109,13.7313 102.194,13.7313 102.194,13.9007 102.278,13.9007 102.278,13.9853 102.363,13.9853 102.363,14.07 102.448,14.07 102.448,14.1547 102.532,14.1547 102.532,14.2393 102.617,14.2393 102.617,14.324 102.702,14.324 102.702,14.4933 102.786,14.4933 102.786,14.578 102.871,14.578 102.871,14.6627 102.956,14.6627 102.956,14.7473 103.04,14.7473 103.04,14.832 103.125,14.832 103.125,14.9167 103.21,14.9167 103.21,15.086 103.294,15.086 103.294,15.1707 103.379,15.1707 103.379,15.2553 103.464,15.2553 103.464,15.34 103.548,15.34 103.548,15.4247 103.633,15.4247 103.633,15.5093 103.718,15.5093 103.718,15.6787 103.802,15.6787 103.802,15.7633 103.887,15.7633 103.887,15.848 103.972,15.848 103.972,15.9327 104.056,15.9327 104.056,16.0173 104.141,16.0173 104.141,16.102 104.226,16.102 104.226,16.2713 104.31,16.2713 104.31,16.356 104.395,16.356 104.395,16.4407 104.48,16.4407 104.48,16.5253 104.564,16.5253 104.564,16.61 104.649,16.61 104.649,16.6947 104.734,16.6947 104.734,16.864 104.818,16.864 104.818,16.9487 104.903,16.9487 104.903,17.0333 104.988,17.0333 104.988,17.118 105.072,17.118 105.072,17.2027 105.157,17.2027 105.157,17.2873 105.242,17.2873 105.242,17.4567 105.326,17.4567 105.326,17.5413 105.411,17.5413 105.411,17.626 105.496,17.626 105.496,17.7107 105.58,17.7107 105.58,17.7953 105.665,17.7953 105.665,17.9647 105.75,17.9647 105.75,18.0493 105.834,18.0493 105.834,18.134 105.919,18.134 105.919,18.2187 106.004,18.2187 106.004,18.3033 106.088,18.3033 106.088,18.388 106.173,18.388 106.173,18.5573 106.258,18.5573 106.258,18.642 106.342,18.642 106.342,18.7267 106.427,18.7267 106.427,18.8113 106.512,18.8113 106.512,18.896 106.596,18.896 106.596,18.9807 106.681,18.9807 106.681,19.15 106.766,19.15 106.766,19.2347 106.85,19.2347 106.85,19.3193 106.935,19.3193 106.935,19.404 107.02,19.404 107.02,19.4887 107.104,19.4887 107.104,19.5733 107.189,19.5733 107.189,19.7427 107.274,19.7427 107.274,19.8273 107.358,19.8273 107.358,19.912 107.443,19.912 107.443,19.9967 107.528,19.9967 107.528,20.0813 107.612,20.0813 107.612,20.166 107.697,20.166 107.697,20.3353 107.782,20.3353 107.782,20.42 111.338,20.42 111.338,20.3353 111.253,20.3353 111.253,20.2507 111.168,20.2507 111.168,20.166 111.084,20.166 111.084,20.0813 110.999,20.0813 110.999,19.912 110.914,19.912 110.914,19.8273 110.83,19.8273 110.83,19.7427 110.745,19.7427 110.745,19.658 110.66,19.658 110.66,19.5733 110.576,19.5733 110.576,19.404 110.491,19.404 110.491,19.3193 110.406,19.3193 110.406,19.2347 110.322,19.2347 110.322,19.15 110.237,19.15 110.237,19.0653 110.152,19.0653 110.152,18.9807 110.068,18.9807 110.068,18.8113 109.983,18.8113 109.983,18.7267 109.898,18.7267 109.898,18.642 109.814,18.642 109.814,18.5573 109.729,18.5573 109.729,18.4727 109.644,18.4727 109.644,18.388 109.56,18.388 109.56,18.2187 109.475,18.2187 109.475,18.134 109.39,18.134 109.39,18.0493 109.306,18.0493 109.306,17.9647 109.221,17.9647 109.221,17.88 109.136,17.88 109.136,17.7107 109.052,17.7107 109.052,17.626 108.967,17.626 108.967,17.5413 108.882,17.5413 108.882,17.4567 108.798,17.4567 108.798,17.372 108.713,17.372 108.713,17.2873 108.628,17.2873 108.628,17.118 108.544,17.118 108.544,17.0333 108.459,17.0333 108.459,16.9487 108.374,16.9487 108.374,16.864 108.29,16.864 108.29,16.7793 108.205,16.7793 108.205,16.6947 108.12,16.6947 108.12,16.5253 108.036,16.5253 108.036,16.4407 107.951,16.4407 107.951,16.356 107.866,16.356 107.866,16.2713 107.782,16.2713 107.782,16.1867 107.697,16.1867 107.697,16.0173 107.612,16.0173 107.612,15.9327 107.528,15.9327 107.528,15.848 107.443,15.848 107.443,15.7633 107.358,15.7633 107.358,15.6787 107.274,15.6787 107.274,15.594 107.189,15.594 107.189,15.4247 107.104,15.4247 107.104,15.34 107.02,15.34 107.02,15.2553 106.935,15.2553 106.935,15.1707 106.85,15.1707 106.85,15.086 106.766,15.086 106.766,14.9167 106.681,14.9167 106.681,14.832 106.596,14.832 106.596,14.7473 106.512,14.7473 106.512,14.6627 106.427,14.6627 106.427,14.578 106.342,14.578 106.342,14.4933 106.258,14.4933 106.258,14.324 106.173,14.324 106.173,14.2393 106.088,14.2393 106.088,14.1547 106.004,14.1547 106.004,14.07 105.919,14.07 105.919,13.9853 105.834,13.9853 105.834,13.816 105.75,13.816 105.75,13.7313 105.665,13.7313 105.665,13.6467 105.58,13.6467 105.58,13.562 105.496,13.562 105.496,13.4773 105.411,13.4773 105.411,13.3927 105.326,13.3927 105.326,13.2233 105.242,13.2233 105.242,13.1387 105.157,13.1387 105.157,13.054 105.072,13.054 105.072,12.9693 104.988,12.9693 104.988,12.8847 104.903,12.8847 104.903,12.7153 104.818,12.7153 104.818,12.6307 104.734,12.6307 104.734,12.546 104.649,12.546 104.649,12.4613 104.564,12.4613 104.564,12.3767 104.48,12.3767 104.48,12.2073 104.395,12.2073 104.395,12.1227 104.31,12.1227 104.31,12.038 104.226,12.038 104.226,11.9533 104.141,11.9533 104.141,11.8687 104.056,11.8687 104.056,11.6993 103.972,11.6993 103.972,11.6147 103.887,11.6147 103.887,11.53 103.802,11.53 103.802,11.4453 103.718,11.4453 103.718,11.276 103.633,11.276 103.633,11.1913 103.548,11.1913 103.548,11.022 104.564,11.022 104.564,10.9373 104.988,10.9373 104.988,10.8527 105.326,10.8527 105.326,10.768 105.665,10.768 105.665,10.6833 105.919,10.6833 105.919,10.5987 106.173,10.5987 106.173,10.514 106.342,10.514 106.342,10.4293 106.596,10.4293 106.596,10.3447 106.766,10.3447 106.766,10.26 106.935,10.26 106.935,10.1753 107.189,10.1753 107.189,10.0907 107.358,10.0907 107.358,10.006 107.528,10.006 107.528,9.92131 107.612,9.92131 107.612,9.83671 107.782,9.83671 107.782,9.75201 107.866,9.75201 107.866,9.66731 108.036,9.66731 108.036,9.58271 108.12,9.58271 108.12,9.49801 108.205,9.49801 108.205,9.41331 108.29,9.41331 108.29,9.32871 108.374,9.32871 108.374,9.24401 108.459,9.24401 108.459,9.15931 108.544,9.15931 108.544,9.07471 108.628,9.07471 108.628,8.99001 108.713,8.99001 108.713,8.90531 108.798,8.90531 108.798,8.82071 108.882,8.82071 108.882,8.73601 108.967,8.73601 108.967,8.65131 109.052,8.65131 109.052,8.56671 109.136,8.56671 109.136,8.48201 109.221,8.48201 109.221,8.31271 109.306,8.31271 109.306,8.22801 109.39,8.22801 109.39,8.05871 109.475,8.05871 109.475,7.88931 109.56,7.88931 109.56,7.80471 109.644,7.80471 109.644,7.63531 109.729,7.63531 109.729,7.46601 109.814,7.46601 109.814,7.21201 109.898,7.21201 109.898,7.04271 109.983,7.04271 109.983,6.78871 110.068,6.78871 110.068,6.53471 110.152,6.53471 110.152,6.02671 112.608,6.02671 112.608,5.94201 112.692,5.94201 112.692,5.85731 112.777,5.85731 112.777,5.688 112.862,5.688 112.862,5.6033 112.946,5.6033 112.946,5.5187 113.031,5.5187 113.031,5.3493 113.116,5.3493 113.116,5.2647 113.2,5.2647 113.2,5.0953 113.285,5.0953 113.285,5.0107 113.37,5.0107 113.37,4.8413 113.454,4.8413 113.454,4.7567 113.539,4.7567 113.539,4.5873 113.624,4.5873 113.624,4.5027 113.708,4.5027 113.708,4.3333 113.793,4.3333 113.793,4.2487 113.878,4.2487 113.878,4.0793 110.068,4.0793 110.068,3.7407 109.983,3.7407 109.983,3.4867 109.898,3.4867 109.898,3.2327 109.814,3.2327 109.814,3.0633 109.729,3.0633 109.729,2.894 109.644,2.894 109.644,2.7247 109.56,2.7247 109.56,2.5553 109.475,2.5553 109.475,2.4707 109.39,2.4707 109.39,2.3013 109.306,2.3013 109.306,2.2167 109.221,2.2167 109.221,2.0473 112.608,2.0473 112.608,1.9627 112.692,1.9627 112.692,1.878 112.777,1.878 112.777,1.7933 112.862,1.7933 112.862,1.624 112.946,1.624 112.946,1.5393 113.031,1.5393 113.031,1.37 113.116,1.37 113.116,1.2853 113.2,1.2853 113.2,1.116 113.285,1.116 113.285,1.0313 113.37,1.0313 113.37,0.862001 113.454,0.862001 113.454,0.777301 113.539,0.777301 113.539,0.608001 113.624,0.608001 113.624,0.5233 113.708,0.5233 113.708,0.354 113.793,0.354 113.793,0.2693 113.878,0.2693 113.878,0.1 100.754,0.1 "/>
   <path id="_65870024" class="fil1" d="M65.8374 58.8923c-2.4947,-2.4437 -3.3887,-13.5658 -7.27251,-16.0756l-7.26651 -4.509 -6.81301 8.59901c3.337,0.647601 8.05051,0.0556 10.4078,2.0089l2.0675 1.7132 8.87671 8.26351z"/>
   <path id="_66829480" class="fil3" d="M27.1731 86.7001m12.4092 -19.6173l0 13.874 6.28851 -1.1519 0 3.4704 -16.635 3.047 0 -17.3444 10.3465 -1.8951zm6.35071 16.2572m20.561 -14.8079c0,1.7444 -0.0737001,3.0041 -0.2214,3.7829 -0.1544,0.784901 -0.624301,1.6208 -1.4161,2.514 -0.791601,0.893001 -1.8653,1.7517 -3.214,2.5732 -1.349,0.821601 -2.9261,1.5668 -4.7176,2.2308 -1.7044,0.631501 -3.2345,1.0448 -4.5901,1.2435 -1.3622,0.2013 -2.4492,0.1506 -3.2747,-0.1506 -0.825301,-0.3012 -1.3153,-0.781601 -1.4763,-1.435 -0.1543,-0.659601 -0.235,-1.8803 -0.235,-3.6649l0 -2.9657c0,-1.7443 0.0740001,-3.004 0.2284,-3.7889 0.1477,-0.778801 0.617301,-1.6148 1.4158,-2.5103 0.791801,-0.893201 1.8589,-1.7492 3.2145,-2.5734 1.3487,-0.821501 2.9189,-1.5643 4.7174,-2.2305 1.7046,-0.631701 3.2344,-1.0449 4.59,-1.2437 1.3554,-0.1987 2.4493,-0.1506 3.2745,0.1507 0.825501,0.3011 1.3153,0.781501 1.4697,1.4373 0.1612,0.657101 0.2349,1.8767 0.2349,3.6649l0 2.9657zm-8.27401 -2.6314c0,-0.808201 -0.0806001,-1.294 -0.2482,-1.4585 -0.1612,-0.1634 -0.4967,-0.1526 -1.0066,0.0364 -0.4363,0.1616 -0.765101,0.3749 -0.993401,0.642301 -0.2347,0.2661 -0.3487,0.846001 -0.3487,1.742l0 8.09621c0,1.0093 0.0806001,1.6012 0.228,1.7805 0.1477,0.1829 0.5034,0.1682 1.0536,-0.0357 0.5635,-0.2089 0.919101,-0.4759 1.0804,-0.806201 0.1543,-0.3314 0.2349,-1.0048 0.2349,-2.0288l0 -7.96821zm9.33701 9.27521m13.0283 -24.2692l3.8712 15.2868 -6.92551 3.681 -0.3344 -2.9415 -2.4291 1.291 -0.4003 3.3321 -7.00201 3.7218 3.438 -19.1718 9.78211 -5.1994zm-3.5806 13.0564c-0.3454,-1.7801 -0.685401,-4.0275 -1.0308,-6.72921 -0.685501,3.6811 -1.1133,6.33301 -1.2832,7.95921l2.314 -1.23zm6.66301 2.1267m13.1386 -26.9254l0 17.3444 -4.7342 3.4523 -2.8118 -5.83391 0 7.88421 -4.5153 3.2927 0 -17.3444 4.5153 -3.2927 3.0307 5.6011 0 -7.81101 4.5153 -3.2927z"/>
   <path id="_66829192" class="fil1" d="M39.3436 50.9582c7.85201,-7.98351 12.5922,-14.1939 17.9004,-23.7556 1.0957,-1.9736 1.6046,-3.7418 4.2533,-3.6993 2.7864,0.0447 3.9854,0.5118 7.65651,0.2831 4.7023,-0.2931 8.80171,-1.3128 12.7713,-3.9067 0.1464,-0.0957001 4.2286,-3.0835 2.0722,-2.5304 -2.2385,0.5741 -2.6942,1.2473 -6.28081,1.7931 -10.8237,1.6472 -22.871,-3.7164 -33.1149,-4.1845l-2.694 0c-0.3837,0.0192 -0.764401,0.0468 -1.1416,0.0847001 -4.1871,0.4211 -7.99221,2.9593 -10.2648,6.41451 -1.3202,2.0073 -1.4796,3.5625 0.621101,2.1452 1.9505,-1.316 3.5193,-2.0735 5.85431,-2.5278 1.6484,-0.3206 5.95191,-0.729701 7.40041,-0.0107 1.9429,0.964501 0.4802,4.032 -0.0163,5.6168 -3.6147,11.5373 -10.0472,23.0657 -17.4754,32.5626 -0.1536,0.1964 -3.2428,3.8259 -1.1777,3.0629 0.935601,-0.3457 3.7951,-2.7342 4.7298,-3.4902 3.0456,-2.4632 6.16101,-5.0665 8.90621,-7.85771z"/>
   <path id="_66828400" class="fil1" d="M45.8708 81.9302c-5.5064,1.6689 -11.0852,3.0984 -16.635,4.2546 -0.4585,0.0955001 -0.916701,0.1891 -1.3747,0.2809 -9.35311,1.874 -16.2256,2.6238 -25.444,3.4683 -0.3406,0.0312 -2.8686,0.341 -2.3463,1.1482 0.830201,1.2829 6.95381,2.1459 8.53751,2.3461 6.29451,0.795701 15.4754,0.3354 21.9122,-0.1546 1.5855,-0.1207 3.144,-0.2563 4.6786,-0.4085 2.3317,-0.2312 4.6083,-0.5008 6.84111,-0.814801 0.949401,-0.1335 1.8908,-0.275 2.8252,-0.425 2.6524,-0.4259 5.2477,-0.920201 7.80561,-1.4935 0.901101,-0.202 1.7976,-0.4138 2.6903,-0.635901 2.2599,-0.5622 4.4955,-1.1903 6.72061,-1.8918 0.3473,-0.1095 0.694401,-0.2207 1.0412,-0.3338 3.4574,-1.1274 6.89471,-2.4353 10.364,-3.9521 0.875601,-0.3828 1.7531,-0.778801 2.6336,-1.1887 2.0597,-0.958801 4.1352,-1.9929 6.23721,-3.1082 0.754401,-0.4003 1.5121,-0.811001 2.2738,-1.2324 1.1304,-0.625401 2.2491,-1.2672 3.3572,-1.9246 2.9499,-1.7501 5.82481,-3.6107 8.64531,-5.5667 0.711001,-0.4931 1.4186,-0.992201 2.123,-1.4972 8.15641,-5.84691 19.4726,-17.8375 16.4152,-28.7657 -0.761501,-2.7218 -2.5883,-5.0739 -4.7269,-6.87241 -2.3949,-2.0141 -4.4627,-2.9981 -7.36491,-4.0651 1.4108,2.6648 2.8227,5.3691 3.0244,8.43141 0.2225,3.3772 -0.639701,6.14931 -2.1546,9.11771 -1.6416,3.2168 -4.1311,6.27911 -7.14411,9.14781 -1.4788,1.408 -3.0837,2.7693 -4.7764,4.0793 -0.900301,0.696801 -1.8254,1.379 -2.7696,2.0461 -1.4663,1.0359 -2.9786,2.0351 -4.5153,2.995 -0.1761,0.11 -0.3525,0.2195 -0.5292,0.3285 -2.233,1.3769 -4.5119,2.6708 -6.77091,3.8737 -0.995501,0.53 -1.9871,1.0423 -2.9692,1.5363 -2.369,1.1915 -4.6829,2.2761 -6.86301,3.2444 -1.0927,0.4853 -2.1518,0.941401 -3.1674,1.3671 -0.3523,0.1476 -0.699301,0.2916 -1.0407,0.4319 -4.5564,1.8722 -9.25111,3.5903 -14.0172,5.1321 -1.1683,0.3779 -2.3408,0.745201 -3.5166,1.1016z"/>
  </g>
 </g>
</svg>
